<svg xmlns="http://www.w3.org/2000/svg" width="520" height="520" viewBox="0 0 520 520">
<rect x="0.00" y="0.00" width="520.00" height="520.00" fill="#ffffff" stroke="none" stroke-width="1" opacity="1.0"/>
<text x="260.00" y="32.00" font-family="Arial, sans-serif" font-size="18" font-weight="bold" fill="#111" text-anchor="middle">Mismatch Composition</text>
<path d="M 250.00 210.00 L 250.00 65.00 A 145.00 145.00 0 1 1 229.45 66.46 Z" fill="#4caf50" stroke="white" stroke-width="3"/>
<path d="M 250.00 210.00 L 229.45 66.46 A 145.00 145.00 0 0 1 237.07 65.58 Z" fill="#ff9800" stroke="white" stroke-width="3"/>
<path d="M 250.00 210.00 L 237.07 65.58 A 145.00 145.00 0 0 1 250.00 65.00 Z" fill="#f44336" stroke="white" stroke-width="3"/>
<text x="250.00" y="55.00" font-family="Arial, sans-serif" font-size="13" font-weight="bold" fill="#111" text-anchor="middle">(1900 total)</text>
<rect x="135.00" y="380.00" width="16.00" height="16.00" fill="#4caf50" stroke="none" stroke-width="1" opacity="1.0"/>
<text x="159.00" y="392.00" font-family="Arial, sans-serif" font-size="11" font-weight="normal" fill="#111" text-anchor="start">Correct (1857) - 97.7%</text>
<rect x="135.00" y="418.00" width="16.00" height="16.00" fill="#ff9800" stroke="none" stroke-width="1" opacity="1.0"/>
<text x="159.00" y="430.00" font-family="Arial, sans-serif" font-size="11" font-weight="normal" fill="#111" text-anchor="start">Non-noise mismatches (16) - 0.8%</text>
<rect x="135.00" y="456.00" width="16.00" height="16.00" fill="#f44336" stroke="none" stroke-width="1" opacity="1.0"/>
<text x="159.00" y="468.00" font-family="Arial, sans-serif" font-size="11" font-weight="normal" fill="#111" text-anchor="start">Noise mismatches (27) - 1.4%</text>
</svg>